<svg xmlns="http://www.w3.org/2000/svg" width="54" height="41" fill="none" viewBox="0 0 54 41"><path fill="#D8D8D8" stroke="#163050" stroke-linecap="round" stroke-linejoin="round" stroke-width="2" d="M34.3099 40H19.6899L20.2399 38L21.0599 35H32.9399L33.7599 38L34.3099 40Z"/><path stroke="#163050" stroke-linecap="round" stroke-linejoin="round" stroke-width="2" d="M36.5 40H17.5"/><path fill="#003C77" d="M33.76 38H20.24L21.06 35H32.94L33.76 38Z" opacity=".2"/><path fill="#1EB8E7" stroke="#163050" stroke-linecap="round" stroke-linejoin="round" stroke-width="2" d="M45.94 5H8.06C6.37001 5 5 6.37001 5 8.06V31.94C5 33.63 6.37001 35 8.06 35H45.94C47.63 35 49 33.63 49 31.94V8.06C49 6.37001 47.63 5 45.94 5Z"/><path fill="#D8D8D8" stroke="#163050" stroke-linecap="round" stroke-linejoin="round" stroke-width="2" d="M49 28V31.94C49 32.7516 48.6776 33.5299 48.1037 34.1037C47.5299 34.6776 46.7516 35 45.94 35H8.06C7.24844 35 6.47011 34.6776 5.89625 34.1037C5.32239 33.5299 5 32.7516 5 31.94V28H49Z"/><path fill="#163050" d="M28 30H26V32H28V30Z"/><path fill="#007FC6" d="M27 25.5C31.9706 25.5 36 21.4706 36 16.5C36 11.5294 31.9706 7.5 27 7.5C22.0294 7.5 18 11.5294 18 16.5C18 21.4706 22.0294 25.5 27 25.5Z"/><g opacity=".4"><path stroke="#B5BFC7" stroke-linecap="round" stroke-linejoin="round" stroke-width="2" d="M34 1H45.94C47.8116 1.00265 49.6058 1.74731 50.9293 3.07075C52.2527 4.39418 52.9974 6.18838 53 8.06V11" opacity=".4"/><path stroke="#B5BFC7" stroke-linecap="round" stroke-linejoin="round" stroke-width="2" d="M26 1H29" opacity=".4"/><path stroke="#B5BFC7" stroke-linecap="round" stroke-linejoin="round" stroke-width="2" d="M9.77 39.0001H8.06C6.18838 38.9974 4.39418 38.2527 3.07075 36.9293C1.74731 35.6059 1.00265 33.8117 1 31.9401V27.4301" opacity=".4"/></g><path stroke="#fff" stroke-linecap="round" stroke-linejoin="round" stroke-width="2" d="M21.3999 15.6L23.9999 13L26.9999 16L29.9999 13L32.6899 15.69"/><path stroke="#fff" stroke-linecap="round" stroke-linejoin="round" stroke-width="2" d="M24.0901 18.92L27.0001 21.54L29.9701 18.92"/></svg>